# xmcd CD database file generated by Grip 3.3.1
# 
# Track frame offsets:
#       150
#       16022
#       28610
#       39117
#       53295
#       74295
#       91805
#       107087
#       125377
#       137347
#       152915
#       166960
#       180637
#       195420
#       207725
#       220785
#       233765
#       249155
# 
# Disc length: 3556 seconds
# 
# Revision: 5
# Processed by: cddbd v1.5.2PL0 Copyright (c) Steve Scherf et al.
# Submitted via: Grip 3.3.1
# 
DISCID=dc0de212
DTITLE=The Specials - Guilty 'Til Proved Innocent!
DYEAR=1998
DGENRE=Ska
TTITLE0=Tears in My Beer
TTITLE1=Call Me Names
TTITLE2=Fearful
TTITLE3=It's You
TTITLE4=Bonediggin
TTITLE5=All Gone Wrong
TTITLE6=No Big Deal
TTITLE7=Leave It Out
TTITLE8=Keep On Learning
TTITLE9=Fantasize
TTITLE10=Place in Life
TTITLE11=Stand Up
TTITLE12=My Tears Come Falling Down like Rain
TTITLE13=The Man with No Name
TTITLE14=Running Away
TTITLE15=Rat Race (Live)
TTITLE16=Concrete Jungle (Live)
TTITLE17=Gangsters (Live)
EXTD=YEAR: 1998 ID3G: 21
EXTT0=
EXTT1=
EXTT2=
EXTT3=
EXTT4=
EXTT5=
EXTT6=
EXTT7=
EXTT8=
EXTT9=
EXTT10=
EXTT11=
EXTT12=
EXTT13=
EXTT14=
EXTT15=
EXTT16=
EXTT17=
PLAYORDER=
